<svg xmlns="http://www.w3.org/2000/svg"  viewBox="0 0 48 48" width="48px" height="48px"><path d="M 19.990234 1.9628906 A 1.0001 1.0001 0 0 0 19.037109 2.7324219 L 17.5 8.265625 L 15.962891 2.7324219 A 1.0001 1.0001 0 0 0 15.009766 1.9863281 A 1.0001 1.0001 0 0 0 14.037109 3.2675781 L 16.5 12.134766 L 16.5 16.5 A 1.0001 1.0001 0 1 0 18.5 16.5 L 18.5 12.134766 L 20.962891 3.2675781 A 1.0001 1.0001 0 0 0 19.990234 1.9628906 z M 29.984375 5.6855469 A 1.0001 1.0001 0 0 0 29 6.6992188 L 29 14.5 C 29 16.14497 30.35503 17.5 32 17.5 C 32.443241 17.5 32.760323 17.199364 33.140625 17.023438 A 1.0001 1.0001 0 0 0 35 16.5 L 35 14.5 L 35 6.6992188 A 1.0001 1.0001 0 1 0 33 6.6992188 L 33 14.5 C 33 15.06503 32.56503 15.5 32 15.5 C 31.43497 15.5 31 15.06503 31 14.5 L 31 6.6992188 A 1.0001 1.0001 0 0 0 29.984375 5.6855469 z M 24.199219 5.6992188 C 22.554249 5.6992188 21.199219 7.0542489 21.199219 8.6992188 L 21.199219 14.5 C 21.199219 16.14497 22.554249 17.5 24.199219 17.5 C 25.844189 17.5 27.199219 16.14497 27.199219 14.5 L 27.199219 8.6992188 C 27.199219 7.0542489 25.844189 5.6992186 24.199219 5.6992188 z M 24.199219 7.6992188 C 24.764249 7.6992188 25.199219 8.1341885 25.199219 8.6992188 L 25.199219 14.5 C 25.199219 15.06503 24.764249 15.5 24.199219 15.5 C 23.634189 15.5 23.199219 15.06503 23.199219 14.5 L 23.199219 8.6992188 C 23.199219 8.1341885 23.634189 7.6992186 24.199219 7.6992188 z M 23.998047 19 C 19.725074 18.9941 15.535031 19.06784 11.435547 19.238281 C 8.0434374 19.238281 5.2476852 21.960701 5.2441406 25.320312 C 5.0759021 27.54385 4.9921951 29.769728 4.9980469 31.998047 C 4.9980469 31.998047 4.9980469 32 4.9980469 32 C 4.9980503 32.0013 4.9980434 32.002606 4.9980469 32.003906 C 4.9921969 34.225137 5.0733189 36.449587 5.2441406 38.673828 C 5.2441406 42.038882 8.0404711 44.765625 11.435547 44.765625 C 15.536952 44.933115 19.727757 45.005997 24.001953 45 C 28.277149 45.0099 32.46918 44.93207 36.564453 44.765625 C 39.959008 44.765625 42.754272 42.042273 42.757812 38.679688 C 42.926089 36.452932 43.009906 34.225575 43 32 C 43.0099 29.770497 42.92705 27.54505 42.757812 25.320312 C 42.754312 21.960939 39.959006 19.238281 36.564453 19.238281 C 32.467568 19.066837 28.276757 18.994053 24.001953 19 L 23.998047 19 z M 23.998047 21 L 24 21 L 24.001953 21 C 28.267817 20.994 32.444394 21.06504 36.521484 21.236328 L 36.542969 21.238281 L 36.564453 21.238281 C 38.901747 21.238281 40.759766 23.068485 40.759766 25.326172 L 40.759766 25.365234 L 40.761719 25.402344 C 40.930636 27.598271 41.009879 29.795018 41 31.996094 L 41 32.001953 L 41 32.005859 C 41.0099 34.201567 40.9297 36.399091 40.761719 38.597656 L 40.759766 38.636719 L 40.759766 38.673828 C 40.759766 40.9363 38.901747 42.765625 36.564453 42.765625 L 36.542969 42.765625 L 36.523438 42.767578 C 32.44467 42.93383 28.265423 43.009968 24.001953 43 L 24 43 L 23.998047 43 C 19.734189 43.006 15.558366 42.93491 11.476562 42.767578 L 11.455078 42.765625 L 11.435547 42.765625 C 9.1006224 42.765625 7.2441406 40.936774 7.2441406 38.673828 L 7.2441406 38.634766 L 7.2402344 38.595703 C 7.0694772 36.399989 6.9921148 34.202726 6.9980469 32.003906 L 6.9980469 32.001953 L 6.9980469 31.998047 C 6.9921169 29.795777 7.0722879 27.597508 7.2402344 25.402344 L 7.2421875 25.363281 L 7.2421875 25.326172 C 7.2421875 23.068722 9.1018075 21.238281 11.435547 21.238281 L 11.457031 21.238281 L 11.478516 21.236328 C 15.558976 21.066105 19.734345 20.994017 23.998047 21 z M 25.484375 23.685547 A 1.0001 1.0001 0 0 0 24.5 24.699219 L 24.5 38.5 A 1.0001 1.0001 0 0 0 26.398438 38.957031 C 26.818452 39.182296 27.193414 39.5 27.699219 39.5 C 29.344189 39.5 30.699219 38.14497 30.699219 36.5 L 30.699219 30.699219 C 30.699219 29.054249 29.344189 27.699219 27.699219 27.699219 C 27.232869 27.699219 26.895475 28.007626 26.5 28.201172 L 26.5 24.699219 A 1.0001 1.0001 0 0 0 25.484375 23.685547 z M 10.5 24.099609 A 1.0001 1.0001 0 1 0 10.5 26.099609 L 12.5 26.099609 L 12.5 38.5 A 1.0001 1.0001 0 1 0 14.5 38.5 L 14.5 26.099609 L 16.5 26.099609 A 1.0001 1.0001 0 1 0 16.5 24.099609 L 10.5 24.099609 z M 17.984375 27.685547 A 1.0001 1.0001 0 0 0 17 28.699219 L 17 36.5 C 17 38.14497 18.35503 39.5 20 39.5 C 20.443241 39.5 20.760323 39.199364 21.140625 39.023438 A 1.0001 1.0001 0 0 0 23 38.5 L 23 36.5 L 23 28.699219 A 1.0001 1.0001 0 1 0 21 28.699219 L 21 36.5 C 21 37.06503 20.56503 37.5 20 37.5 C 19.43497 37.5 19 37.06503 19 36.5 L 19 28.699219 A 1.0001 1.0001 0 0 0 17.984375 27.685547 z M 34.699219 27.699219 C 33.054249 27.699219 31.699219 29.054249 31.699219 30.699219 L 31.699219 36.5 C 31.699219 38.14497 33.054249 39.5 34.699219 39.5 C 36.344189 39.5 37.699219 38.14497 37.699219 36.5 L 37.699219 35.701172 A 1.0001 1.0001 0 1 0 35.699219 35.701172 L 35.699219 36.5 C 35.699219 37.06503 35.264249 37.5 34.699219 37.5 C 34.134189 37.5 33.699219 37.06503 33.699219 36.5 L 33.699219 34 L 36.699219 34 A 1.0001 1.0001 0 0 0 37.699219 33 L 37.699219 30.699219 C 37.699219 29.054249 36.344189 27.699219 34.699219 27.699219 z M 27.699219 29.699219 C 28.264249 29.699219 28.699219 30.134189 28.699219 30.699219 L 28.699219 36.5 C 28.699219 37.06503 28.264249 37.5 27.699219 37.5 C 27.134189 37.5 26.699219 37.06503 26.699219 36.5 L 26.699219 30.699219 C 26.699219 30.134189 27.134189 29.699219 27.699219 29.699219 z M 34.699219 29.699219 C 35.264249 29.699219 35.699219 30.134189 35.699219 30.699219 L 35.699219 32 L 33.699219 32 L 33.699219 30.699219 C 33.699219 30.134189 34.134189 29.699219 34.699219 29.699219 z"/></svg>